<svg id="Layer_2" data-name="Layer 2" xmlns="http://www.w3.org/2000/svg" viewBox="0 0 104.31 109.42">
  <defs>
    <style>
      .cls-1 {
        fill: #1447E6;
      }
    </style>
  </defs>
  <g id="Layer_1-2" data-name="Layer 1">
    <path class="cls-1" d="M95.64,46.82l.52.49c1.25,1.35,2.4,2.81,3.55,4.39,3.23,4.64,5.32,9.89,4.38,15.37v.11c0,.13-.21.25-.21.38v.35l-.1.13c0,.25,0,.36-.1.49-1.25,4.75-4.28,8.16-8.24,10.7v-.09.13-.03c2.09,4.13,2.92,8.49,1.67,12.98-2.4,9.16-12.2,13.67-20.65,15.62-12.2,2.81-26.18,1.59-38.38-1.35-12.41-3.66-25.87-10.13-35.15-19.29l-1.36-1.46,3.55-3.06,12.52-12.57c-2.4-1.6-4.69-3.42-6.78-5.5-.73-.61-1.46-1.34-2.09-2.08l-.63-.48c-1.25-1.35-2.4-2.82-3.55-4.4C1.24,53.04-.64,47.77.2,42.29l.1-.11v-.37c0-.13.1-.25.1-.36v-.13c0-.13.21-.35.21-.48,1.15-4.64,4.38-8.18,8.24-10.62-1.98-4.15-2.92-8.54-1.67-13.06C9.58,8,19.39,3.48,27.94,1.53,40.15-1.16,54.02-.05,66.22,2.88c12.41,3.65,25.87,10.13,35.15,19.4l1.36,1.35-3.55,3.05-12.62,12.58c2.5,1.71,4.8,3.54,6.88,5.49.73.62,1.46,1.35,2.19,2.08h0ZM15.95,85.77c7.41,5.12,16.58,8.91,24.62,11.34,10.01,2.33,21.9,3.66,32.13,1.96,5.11-.97,13.45-3.41,15.02-9.28.63-2.32.1-4.52-.94-6.71-1.25.49-2.5.73-3.65,1.1-12.2,2.69-26.29,1.6-38.38-1.35-3.44-.97-6.99-2.19-10.33-3.66-2.82-1.1-5.53-2.31-8.24-3.65l-10.22,10.25h0ZM10.32,42.43v.13c-.1.08-.1.17-.1.25,0,.13-.1.25-.1.25v.35c-.21,0-.21.13-.21.13v.36h-.1v.25c-.1.61-.1,1.35,0,1.95.1,1.95.94,3.91,2.09,5.61l.1.25c1.98,3.3,5.11,6.47,9.7,9.51,7.51,5.26,16.79,9.16,25.35,11.72,2.4.61,4.9,1.22,7.41,1.7,8.24,1.35,17,1.84,24.82.37.31,0,.73-.13,1.04-.13-.52-.49-1.04-.97-1.67-1.47-7.93-6.34-18.46-10.98-28.06-13.79-12-4.16-22.84-10.25-32.65-18.32-1.15-1.1-2.4-2.44-3.65-3.66-1.67,1.1-3.13,2.57-3.96,4.52h0ZM88.44,23.64c-7.61-5.12-16.69-8.91-24.82-11.36-10.01-2.32-21.7-3.66-31.92-1.83-5.32.86-13.46,3.3-15.02,9.16-.63,2.33-.1,4.64.83,6.72,1.25-.5,2.4-.74,3.65-1.11,12.2-2.69,26.29-1.59,38.49,1.34,3.34.98,6.78,2.19,10.22,3.66,2.82,1.1,5.63,2.32,8.14,3.79l10.43-10.38h0ZM92.3,57.58c-1.88-3.3-5.22-6.47-9.7-9.53-7.51-5.37-16.79-9.27-25.35-11.84-2.4-.62-5.01-1.22-7.51-1.72-8.14-1.33-16.9-1.7-24.62-.35-.42,0-.83.13-1.25.13.63.49,1.25.98,1.77,1.46,7.82,6.35,18.36,10.98,27.95,13.8,12,4.15,22.84,10.38,32.65,18.32,1.25,1.2,2.5,2.4,3.75,3.61-.1.01-.1.03-.1.04h.1v-.04c1.77-1.1,3.23-2.53,3.86-4.47h.21v-.35h.1v-.25c.1-.13.1-.25.1-.25v-.25l.1-.24v-.25c.1-.74.1-1.47.1-2.08-.21-1.96-.94-3.91-2.09-5.62l-.1-.11v.02Z"/>
  </g>
</svg>